<?xml version="1.0" encoding="UTF-8"?>
<svg width="512" height="512" viewBox="0 0 512 512" xmlns="http://www.w3.org/2000/svg">
    <!-- Base dirt block (isometric view) -->
    <path d="M256 64 L448 192 L256 320 L64 192 Z" fill="#8B5A2B"/>
    
    <!-- Right side (darker) -->
    <path d="M448 192 L448 384 L256 512 L256 320 Z" fill="#7B4A2B"/>
    
    <!-- Left side (lighter) -->
    <path d="M64 192 L64 384 L256 512 L256 320 Z" fill="#9B6A3B"/>
    
    <!-- Grass top -->
    <path d="M256 64 L448 192 L256 320 L64 192 Z" fill="#567D46"/>
    
    <!-- Grass overhang on right -->
    <path d="M448 192 L448 208 L256 336 L256 320 Z" fill="#4A7023"/>
    
    <!-- Grass overhang on left -->
    <path d="M64 192 L64 208 L256 336 L256 320 Z" fill="#4A7023"/>
    
    <!-- Grass texture on top -->
    <path d="M256 96 L384 208 L256 320 L128 208 Z" fill="#4A7023"/>
    <path d="M192 128 L320 240 L256 320 L128 208 Z" fill="#4A7023"/>
    <path d="M320 128 L384 208 L256 320 L192 240 Z" fill="#4A7023"/>
    
    <!-- Additional grass patches -->
    <path d="M288 96 L352 160 L256 256 L192 192 Z" fill="#4A7023"/>
    <path d="M224 128 L288 192 L256 256 L192 192 Z" fill="#4A7023"/>
    
    <!-- Dirt texture on right side -->
    <path d="M384 240 L384 384 L256 512 L256 368 Z" fill="#6B3A1B"/>
    <path d="M320 256 L320 384 L256 448 L256 320 Z" fill="#6B3A1B"/>
    <path d="M352 288 L352 384 L256 480 L256 384 Z" fill="#6B3A1B"/>
    
    <!-- Dirt texture on left side -->
    <path d="M128 240 L128 384 L256 512 L256 368 Z" fill="#8B5A2B"/>
    <path d="M192 256 L192 384 L256 448 L256 320 Z" fill="#8B5A2B"/>
    <path d="M160 288 L160 384 L256 480 L256 384 Z" fill="#8B5A2B"/>
    
    <!-- Side shading -->
    <path d="M448 192 L448 384 L256 512 L256 320 Z" fill="#000000" fill-opacity="0.1"/>
    <path d="M64 192 L64 384 L256 512 L256 320 Z" fill="#FFFFFF" fill-opacity="0.1"/>
    
    <!-- Grass details -->
    <path d="M256 64 L448 192 L256 320 L64 192 Z" fill="#4A7023" fill-opacity="0.2"/>
    <path d="M256 64 L448 192 L256 320 L64 192 Z" fill="#4A7023" fill-opacity="0.1"/>
    
    <!-- Edge highlights -->
    <path d="M256 64 L448 192" stroke="#4A7023" stroke-width="2" fill="none"/>
    <path d="M256 64 L64 192" stroke="#4A7023" stroke-width="2" fill="none"/>
    <path d="M448 192 L448 384" stroke="#7B4A2B" stroke-width="2" fill="none"/>
    <path d="M64 192 L64 384" stroke="#9B6A3B" stroke-width="2" fill="none"/>
</svg> 